# xmcd
# 
# Track frame offsets:
#     182
#     15562
#     29435
#     44335
#     57062
#     74650
#     87932
#     104285
#     118377
#     139487
# 
# Disc length: 2107
# 
# Revision: 9
# Processed by: cddbd v1.5.2PL0 Copyright (c) Steve Scherf et al.
# Submitted via: fre:ac v1.0.17
# 
DISCID=9008390a
DTITLE=Dwight Yoakam - Gone
DYEAR=1995
DGENRE=Country
TTITLE0=Sorry You Asked?
TTITLE1=Near You
TTITLE2=Don't Be Sad
TTITLE3=Gone (That'll Be Me)
TTITLE4=Nothing
TTITLE5=Never Hold You
TTITLE6=This Much I Know
TTITLE7=Baby Why Not
TTITLE8=One More Night
TTITLE9=Heart Of Stone
EXTD=ID3G:   2 YEAR: 1995
EXTT0=
EXTT1=
EXTT2=
EXTT3=
EXTT4=
EXTT5=
EXTT6=
EXTT7=
EXTT8=
EXTT9=
PLAYORDER=
